<svg preserveAspectRatio="none" overflow="visible" style="display: block;" width="18" height="18" viewBox="0 0 18 18" fill="none" xmlns="http://www.w3.org/2000/svg">
<g id="heart-handshake" clip-path="url(#clip0_0_54)">
<path id="Vector" d="M18.5 9C18.5 10.8569 17.9376 12.5825 16.9739 14.0157C15.358 16.4189 12.6136 18 9.5 18C6.38636 18 3.64202 16.4189 2.02609 14.0157C1.06237 12.5825 0.5 10.8569 0.5 9C0.5 4.02944 4.52944 0 9.5 0C14.4706 0 18.5 4.02944 18.5 9Z" stroke="#8E8E93" stroke-width="2"/>
<path id="Vector_2" d="M11.5 6C11.5 7.10457 10.6046 8 9.5 8C8.39543 8 7.5 7.10457 7.5 6C7.5 4.89543 8.39543 4 9.5 4C10.6046 4 11.5 4.89543 11.5 6Z" stroke="#8E8E93" stroke-width="2"/>
<path id="Vector_3" d="M12.5 12H6.49998C4.68822 12 3.1578 13.2045 2.66583 14.8564C4.31645 16.7808 6.76583 18 9.49998 18C12.2341 18 14.6835 16.7808 16.3341 14.8564C15.8421 13.2045 14.3117 12 12.5 12Z" stroke="#8E8E93" stroke-width="2"/>
</g>
<defs>
<clipPath id="clip0_0_54">
<rect width="18" height="18" fill="white"/>
</clipPath>
</defs>
</svg>
