<svg preserveAspectRatio="none" overflow="visible" style="display: block;" width="18" height="18" viewBox="0 0 24 24" fill="none" xmlns="http://www.w3.org/2000/svg">
<g id="thumbs-down">
<path d="M17 2H21V12H17C16.45 12 16 12.45 16 13V20C16 20.55 15.55 21 15 21H12.59C12.22 21 11.89 20.79 11.74 20.46L9.13 14C8.87 13.4 9.33 12.75 9.97 12.75H12C12.55 12.75 13 12.3 13 11.75V3C13 2.45 12.55 2 12 2H10C9.45 2 9 2.45 9 3V11.5C9 12.05 8.55 12.5 8 12.5H4.5C3.95 12.5 3.5 12.05 3.5 11.5V2.5C3.5 2.22 3.72 2 4 2H17Z" stroke="currentColor" stroke-width="2" stroke-linejoin="round"/>
</g>
</svg>
