<svg preserveAspectRatio="none" overflow="visible" style="display: block;" width="14" height="14" viewBox="0 0 14 14" fill="none" xmlns="http://www.w3.org/2000/svg">
<g id="share-2" clip-path="url(#clip0_0_40)">
<path id="Vector" d="M5.01074 7.88077L8.99491 10.2026M8.98908 3.79711L5.01074 6.11896M12.25 2.91634C12.25 3.88292 11.4665 4.66648 10.5 4.66648C9.5335 4.66648 8.75 3.88292 8.75 2.91634C8.75 1.94976 9.5335 1.1662 10.5 1.1662C11.4665 1.1662 12.25 1.94976 12.25 2.91634ZM5.25 7C5.25 7.96658 4.4665 8.75014 3.5 8.75014C2.5335 8.75014 1.75 7.96658 1.75 7C1.75 6.03342 2.5335 5.24986 3.5 5.24986C4.4665 5.24986 5.25 6.03342 5.25 7ZM12.25 11.0837C12.25 12.0502 11.4665 12.8338 10.5 12.8338C9.5335 12.8338 8.75 12.0502 8.75 11.0837C8.75 10.1171 9.5335 9.33352 10.5 9.33352C11.4665 9.33352 12.25 10.1171 12.25 11.0837Z" stroke="#A5A5C7" stroke-width="2" stroke-linecap="round"/>
</g>
<defs>
<clipPath id="clip0_0_40">
<rect width="14" height="14" fill="white"/>
</clipPath>
</defs>
</svg>
